# xmcd CD database file
#
# Track frame offsets:
#	150
#	22145
#	45202
#	64011
#	88558
#	110923
#	130885
#	157224
#	179156
#	198631
#	221293
#
# Disc length: 3262 seconds
#
# Revision: 0
# Processed by: cddbd v1.5.1PL0 Copyright (c) Steve Scherf et al.
# Submitted via: freeDB plugin v1.0
#
DISCID=a30cbc0b
DTITLE=Every Little Thing - シングルス
DYEAR=1900
DGENRE=Rock
TTITLE0=ｆragile
TTITLE1=Graceful World
TTITLE2=ｊｕｍｐ
TTITLE3=キヲク
TTITLE4=ささやかな祈り
TTITLE5=ＵＮＳＰＥＡＫＡＢＬＥ
TTITLE6=ｎｏｓｔａｌｇｉａ
TTITLE7=Ｇｒｉｐ！
TTITLE8=ファンダメンタル・ラブ
TTITLE9=また　あした
TTITLE10=ソラアイ
EXTD=
EXTT0=
EXTT1=
EXTT2=
EXTT3=
EXTT4=
EXTT5=
EXTT6=
EXTT7=
EXTT8=
EXTT9=
EXTT10=
PLAYORDER=
